<?xml version="1.0" encoding="utf-8"?>
<!-- Generator: Adobe Illustrator 21.1.0, SVG Export Plug-In . SVG Version: 6.00 Build 0)  -->
<svg version="1.1" id="Layer_1" xmlns="http://www.w3.org/2000/svg" xmlns:xlink="http://www.w3.org/1999/xlink" x="0px" y="0px"
	 viewBox="0 0 256 180" style="enable-background:new 0 0 256 180;" xml:space="preserve">
<style type="text/css">
	.st0{fill:#0A0300;}
	.st1{fill:#E21F26;}
	.st2{fill:#DBDCDD;}
</style>
<g>
	<path class="st0" d="M225.5,142.5c-3.4-1.8-4.6-5.3-5-8c-0.5-3-0.1-5.6-0.1-5.6l0.1-0.6l-0.6-0.1c-0.2,0-4-1-6.4-1
		c-1.1,0-1.8,0.2-2.1,0.7c-1,1.4,1.6,4.5,3.2,6.2l0,0c1.1,1.1,2.2,1.4,2.9,1.4c-0.1,0.5-0.3,1.1-0.6,1.7l-0.1,0.4l6.4,8.5
		c1.5,2.2,2.7,3.2,3.7,3.2c0.7,0,1-0.5,1.1-0.6c0.1-0.2,0.2-0.2,0.2-0.2c0,0,0.1,0,0.1,0l0,0.1l0.1,0.1c1.6,1.5,2.7,3.9,3.4,5.3
		c0.5,1.1,0.7,1.5,1.2,1.5h0c0.3,0,0.7-0.2,0.7-0.9c0-0.5,0.3-0.7,0.6-0.8l5.9,1.4l0.1-0.8C240.7,149.3,227,143.2,225.5,142.5"/>
</g>
<g>
	<path class="st0" d="M101.4,126.2c-1.7-0.9-3.3-1.5-3.4-1.6l-0.5-0.2l-0.2,0.5c0,0-1.1,2.1-3.1,4.1c-1.7,1.8-4.5,4-8,4
		c-0.4,0-0.8,0-1.2-0.1c-0.5-0.1-6.5-1.4-11.7-1.4c-3.8,0-6.1,0.7-6.9,2.2l-0.3,0.6l5.4,2.3c0.1,0.2,0.3,0.6,0,1.1
		c-0.1,0.1-0.3,0.4-0.1,0.8c0.1,0.2,0.3,0.3,0.5,0.3c0.3,0,0.5-0.1,1.4-0.6c1.4-0.7,3.7-2,5.9-2.3l0.1,0l0.1,0c0,0,0,0,0.1,0
		c0,0,0.2,0,0.2,0.4c0,0.2,0,0.6,0.2,0.8c0.3,0.4,0.8,0.6,1.6,0.6c0.8,0,2-0.3,3.5-0.8l10.1-3l0.1-0.3c0.2-0.7,0.4-1.4,0.6-1.9
		c0.5,0.3,1.2,0.7,2.4,0.7c0.3,0,0.5,0,0.8-0.1l0,0c0.1,0,1.4-0.3,2.9-0.7c2.2-0.7,3.2-1.4,3.2-2.3
		C105,128.7,104.5,127.8,101.4,126.2"/>
</g>
<g>
	<path class="st0" d="M155.9,157.2c-5-6.5,1.1-16.1,1.1-16.2l0.3-0.4l-0.4-0.3c-0.6-0.4-5.5-4.4-7.5-4.4c-0.2,0-0.5,0.1-0.6,0.2
		c-1.6,0.9-0.3,5.5,0.4,7.4l0,0c0.7,1.7,1.7,2.4,2.4,2.7c-0.3,0.4-0.9,1.1-1.5,1.7l-0.2,0.2l2.4,11.3c0.6,3.3,1.5,4.9,2.7,4.9
		c0.3,0,0.6-0.1,0.7-0.2c0.2-0.1,0.3-0.1,0.4-0.1c0.1,0,0.2,0.1,0.2,0.2l0,0.1l0,0.1c0.9,2.3,0.9,5.2,1,6.9c0,1.4,0,1.9,0.7,1.9h0
		c0.4,0,0.6-0.4,0.6-0.5c0.2-0.4,0.6-0.6,1.1-0.6c0,0,0.1,0,0.1,0l5.1,4l0.3-0.6C167.8,170.9,157.2,158.6,155.9,157.2"/>
</g>
<g>
	<path class="st1" d="M181.5,16.2c-9.3-3.9-16-5.5-16.1-5.5C111.5-3.4,76.4,26.4,64.6,38.8c0.8-0.1,1.9,0,3.5,0.5
		c1,0.3,2,0.9,2.9,1.7c1.4,1.6,3.8,6.5,7.8,5.5l1.1-0.3c0,0-4.1,5.5-3.1,10.4c0,0,2.7,22-0.7,39L76,96c-3.1,9.1-1.1,13.6-1.1,13.6
		c0,0,1.2,2.7,4.1,5.3c8.3,6.3,17.5,11.7,27.4,15.9c38.8,16.4,76.3,10.4,76.7,10.3c22.1-2.2,38-9.7,47.3-22.4
		c12.7-17.2,8.7-38.1,8.6-38.3C231.3,42.5,199.7,23.9,181.5,16.2"/>
</g>
<g>
	<path class="st0" d="M194.1,64.1c-1.1,14.8-11.8,26-23.9,25.1C158,88.3,149,75.7,150.1,60.9c1.1-14.8,11.8-26,23.9-25.1
		C186.2,36.7,195.1,49.3,194.1,64.1"/>
</g>
<g>
	<path class="st0" d="M171.5,89.7c-0.5,0-0.9,0-1.4,0c-6-0.4-11.5-3.7-15.3-9.1c-3.9-5.4-5.7-12.4-5.2-19.7
		c0.5-7.2,3.3-13.9,7.9-18.7c4.6-4.8,10.5-7.3,16.5-6.8c6,0.4,11.5,3.7,15.3,9.1c3.9,5.4,5.7,12.4,5.2,19.6
		c-0.5,7.2-3.3,13.9-7.9,18.7C182.3,87.3,177,89.7,171.5,89.7z M172.7,36.2c-5.3,0-10.4,2.3-14.5,6.6c-4.4,4.7-7.2,11.1-7.7,18.1
		c-0.5,7,1.3,13.8,5,19.1c3.7,5.2,8.9,8.3,14.7,8.8c5.7,0.4,11.3-1.9,15.8-6.6c4.4-4.7,7.2-11.1,7.7-18.1l0,0c0.5-7-1.3-13.8-5-19.1
		c-3.7-5.2-8.9-8.3-14.7-8.8C173.5,36.2,173.1,36.2,172.7,36.2z"/>
</g>
<g>
	<path class="st0" d="M230.9,107.9c-4.6,10-15,15.1-23.2,11.3c-8.2-3.8-11.1-15-6.5-25c4.6-10,15-15.1,23.2-11.3
		C232.6,86.7,235.6,97.9,230.9,107.9"/>
</g>
<g>
	<path class="st0" d="M213.4,121c-2,0-4-0.4-5.9-1.3c-8.4-3.9-11.5-15.4-6.7-25.6c4.7-10.3,15.4-15.4,23.8-11.6
		c8.4,3.9,11.5,15.4,6.7,25.6l0,0C227.7,116.1,220.4,121,213.4,121z M218.7,82.1c-6.7,0-13.6,4.7-17.1,12.3
		c-4.5,9.8-1.7,20.8,6.3,24.4c8,3.7,18.1-1.3,22.6-11.1c4.5-9.8,1.7-20.8-6.3-24.4C222.5,82.5,220.6,82.1,218.7,82.1z"/>
</g>
<g>
	<path class="st0" d="M146.4,99.7c0.5,9.6-7,17.8-16.8,18.4c-9.8,0.5-18.2-6.8-18.7-16.4c-0.5-9.6,7-17.8,16.7-18.4
		C137.5,82.7,145.8,90.1,146.4,99.7"/>
</g>
<g>
	<path class="st0" d="M128.6,118.5c-4.5,0-8.7-1.6-12.1-4.5c-3.6-3.2-5.8-7.5-6-12.3c-0.3-4.8,1.4-9.3,4.6-12.9
		c3.2-3.6,7.7-5.7,12.6-5.9c10-0.6,18.6,7,19.2,16.8l0,0c0.5,9.8-7.2,18.3-17.2,18.8C129.3,118.5,128.9,118.5,128.6,118.5z
		 M128.7,83.7c-0.3,0-0.7,0-1,0c-4.6,0.3-8.9,2.3-11.9,5.6c-3.1,3.4-4.6,7.7-4.4,12.2c0.3,4.5,2.3,8.7,5.7,11.7
		c3.4,3,7.9,4.5,12.5,4.3c9.5-0.5,16.8-8.6,16.3-17.9l0,0C145.4,90.7,137.8,83.7,128.7,83.7z"/>
</g>
<g>
	<path class="st0" d="M155.4,7.9c9.4,1.3,16.7,5,16.2,8.2c-0.4,3.3-8.4,4.9-17.8,3.6c-9.4-1.3-16.7-5-16.2-8.2
		C138,8.2,146,6.6,155.4,7.9"/>
</g>
<g>
	<path class="st2" d="M69.1,38.8c0,0,11.5-5.9,22.8,4.4l7.1,11.2c0,0-7-1.1-9.7,5.6c0,0-0.5,6.6-8.9,11.5c0,0-4.8-13.6-1.3-21.7
		l2.7-4.9c0,0-6.1,2.3-8.8-2.8C73.1,42.1,71.5,39.4,69.1,38.8"/>
</g>
<g>
	<path class="st0" d="M231.5,57c-11.4-10.4-23.6-18.4-36.3-23.8c-4.6-1.9-9.3-3.6-14-4.9c-14.7-4-30.2-5-46-3.2
		c-27,3.1-46.1,13.7-46.3,13.8l-0.7,0.4l0.9,2.3l0.7-0.4c0.2-0.1,19-10.5,45.5-13.5c15.6-1.8,30.8-0.7,45.2,3.2
		c5,1.4,10.1,3.1,14.9,5.1c12.4,5.3,25,12.9,35.8,22.6l0.8,0.1l-0.2-0.9L231.5,57z"/>
</g>
<g>
	<path class="st0" d="M42.4,99.3c-9.1-7-9.1-20.2-9-23.3c-0.1-0.2-0.8-0.3-1-0.4c-2.7-0.9-5.9,2.6-6,2.6c-6.1,7.3-2,13.5-1.8,14.1
		c-1.9-0.6-3.7-1.2-5.1-2.7c-1.2-1.3-1.7-3-2.3-4.8c-0.5-1.5-0.9-2.9-1.8-4.1c-0.6-0.8-2.1-2.4-3.5-3.3c0,0-6.4-4.3-7.8-1.4
		c-0.4,0.8-0.5,2.2,0.4,3.1c1.2,1.3,2.7,1.4,4.4,1.5c2.3,0.2,4.2,1,5.2,3.1c0.8,1.5,1.1,3.2,1.8,4.8c2.1,4.9,8.8,5.9,9,5.8
		c0.2,2.2,0,4.7,0,5.2c-0.6,3.9,0.8,7.1,0.8,7.1c0.7,1.9,2.8,4.9,2.8,4.9c-3.5,4.8,0.2,11.1-2.5,15.8c-1.3,2.4-6.9,6.7-3.4,8.6
		c3.5,1.9,8-7.8,7.3-14.2c-0.2-1.6-0.6-3.2-0.6-4.8c-0.1-1.6,0.4-2.6,1-4.1c3.4,2.7,5.3,3.4,7.8,3.7c3.1,0.1,5.4-1.8,6.6-3.5
		C44.8,112.7,47,104.5,42.4,99.3"/>
</g>
<g>
	<path class="st2" d="M30,110.5c0,0-6.1-6.3-3.7-11.9c0,0,2.3-2.4,3.6,1.1c0,0,0.8,1.5,0.4,4.8c-0.3,2-0.1,3.7,0.9,5.3
		C31.1,109.8,30.9,111.1,30,110.5"/>
</g>
<g>
	<path class="st2" d="M25.4,91.1c0,0,0.3,0.1,0.6-0.5c0,0-0.1-1.1,0.9-3.5c0,0,2.8-4.9-0.9-5.2c0,0-1.1,0.2-1.4,1.9
		C24.5,83.8,23.4,87.7,25.4,91.1"/>
</g>
<g>
	<path class="st0" d="M93.2,37.6c-7.6,5.4-15.5,7.3-17.6,4.3c-2.1-3,2.4-9.8,10-15.1s15.5-7.3,17.6-4.3
		C105.3,25.5,100.8,32.2,93.2,37.6"/>
</g>
<g>
	<path class="st0" d="M79.2,43.7c-1.8,0-3.2-0.5-4-1.6c-2.3-3.3,2.2-10.2,10.1-15.8c3.7-2.6,7.7-4.5,11-5.3c3.5-0.9,6.1-0.4,7.2,1.2
		c2.3,3.3-2.2,10.2-10.1,15.8C88.1,41.7,82.8,43.7,79.2,43.7z M99.5,21.5c-0.9,0-1.9,0.1-3,0.4c-3.3,0.8-7.1,2.6-10.7,5.2
		c-7.3,5.1-11.8,11.8-9.9,14.5c1.9,2.7,9.7,0.7,17-4.4h0c7.3-5.1,11.8-11.8,9.9-14.5C102.2,21.9,101.1,21.5,99.5,21.5z"/>
</g>
<g>
	<path class="st0" d="M103.9,59.2c-10.3,4.6-20.8,3.5-23.4-2.4c-2.6-5.9,3.7-14.4,14-19c10.3-4.6,20.8-3.5,23.4,2.4
		C120.5,46.2,114.2,54.6,103.9,59.2"/>
</g>
<g>
	<path class="st0" d="M91.5,62.5c-0.8,0-1.5,0-2.3-0.1c-4.6-0.5-7.9-2.4-9.2-5.4c-1.3-3-0.6-6.7,2.2-10.4c2.7-3.6,7-6.9,12-9.1
		c5.1-2.2,10.3-3.2,14.8-2.7c4.6,0.5,7.9,2.4,9.2,5.4c1.3,3,0.6,6.7-2.2,10.4c-2.7,3.6-7,6.9-12,9.1l-0.2-0.4l0.2,0.4
		C99.9,61.5,95.5,62.5,91.5,62.5z M106.9,35.5c-3.8,0-8.1,1-12.2,2.8c-4.9,2.2-9.1,5.3-11.7,8.8c-2.5,3.4-3.3,6.8-2.1,9.5
		c1.2,2.7,4.2,4.4,8.4,4.9c4.4,0.5,9.5-0.5,14.4-2.7s9.1-5.3,11.7-8.8c2.5-3.4,3.3-6.8,2.1-9.5c-1.2-2.7-4.2-4.4-8.4-4.9
		C108.3,35.5,107.6,35.5,106.9,35.5z"/>
</g>
<g>
	<path class="st0" d="M240.4,80.2c-7.9-38.6-40-57.4-58.4-65.2c-8.9-3.8-15.5-5.4-16.2-5.5l0,0c-9.5-2.5-19-3.8-28.2-3.8
		c-17.8,0-34.7,4.6-50.4,13.7c-12.8,7.5-21.4,16.1-25.4,20.5l-1,1.1c-13.8,7.3-23.5,27.6-26.2,33.6l0,0.1l0,0c0,0.1,0,0.4,0,0.7
		c0,1.7,0,5.6,1.1,10.1c1.4,5.6,4,9.9,7.8,12.8c0.1,0,5.1,5.9,2.6,13.7c-0.1,0.2,0.4,1.1,0.7,1.5c1.9,3.2,5.1,4.9,9.7,4.9
		c6.9,0,14.6-3.9,14.6-3.9c1.6-0.8,2.7-1.8,3.3-2.8c0.9,1.5,2.2,2.8,3.7,4.1c0.1,0.1,11.7,9.3,27.8,16.2l0,0
		c22.5,9.6,44.7,11.6,59.3,11.6h0c11,0,18-1.1,18.1-1.1c22.4-2.2,38.7-9.9,48.2-22.9C244.6,101.9,240.4,80.4,240.4,80.2 M74.7,101.3
		c0.6-2.8,1.4-5.3,1.4-5.3l0.1-0.3c3.3-16.8,0.7-38.8,0.7-39c-1-4.8,3.1-10.3,3.1-10.3l0.1-0.2l-1.3,0.3c-0.3,0.1-0.7,0.1-1,0.1
		c-2.7,0-4.6-2.7-5.8-4.4c-0.4-0.5-0.7-0.9-0.9-1.2c-1-0.9-2-1.4-2.9-1.7c-1.5-0.4-2.5-0.6-3.3-0.5c5.1-5.3,13.7-13,25.6-19.6
		C105.1,11.1,121,7,137.6,7c9.1,0,18.5,1.2,27.9,3.7c0.1,0,6.8,1.6,16,5.5c18.2,7.7,49.8,26.3,57.5,64.2c0,0.2,4.1,21.1-8.6,38.2
		c-9.3,12.6-25.2,20.2-47.3,22.3c-0.1,0-6.9,1.1-17.9,1.1c-14.5,0-36.4-2-58.7-11.5c-9.9-4.2-19.1-9.5-27.4-15.8
		c-2.7-2.4-3.9-4.8-4.1-5.3C75,109.6,73.8,106.8,74.7,101.3"/>
</g>
<g>
	<path class="st2" d="M65.2,110.5c-6.5-7.3-5-10.4-5-10.4c1.1-3.7-0.1-5.3-0.1-5.3c-3-5-15.5,0.3-13.5,4c0.7,1.4,1.5,2.9,2,4.5
		c0.3,1.2,0.5,2.4,0.5,3.7c0,1.1-0.3,2.4-0.2,3.5c0.9,5.4,9.1,5.1,9.1,5.1C67.4,115.4,65.2,110.5,65.2,110.5"/>
</g>
</svg>
